<?xml version="1.0" encoding="utf-8"?>
<!-- Generator: Adobe Illustrator 26.2.1, SVG Export Plug-In . SVG Version: 6.00 Build 0)  -->
<svg version="1.1" id="Слой_1" xmlns="http://www.w3.org/2000/svg" xmlns:xlink="http://www.w3.org/1999/xlink" x="0px" y="0px"
	 viewBox="0 0 491.59 491.59" style="enable-background:new 0 0 491.59 491.59;" xml:space="preserve">
<style type="text/css">
	.st0{fill:#006B93;}
	.st1{fill:#FFF3D9;}
	.st2{fill:#FACA21;}
	.st3{fill:#E22115;}
</style>
<g>
	<g>
		<path class="st0" d="M118.91,129.73c41.78-174.84,240.54-151.84,261.25,16.36c-12.6-38.34-64.16-20.12-63.92,15.98
			C271.46,51.01,228.07,38.8,185.02,149.14c-5.32-23.35-38.92-32-56.12-17.56C117.82,144.91,116.68,154.52,118.91,129.73z"/>
		<polygon class="st0" points="4.86,296.13 90.36,295.79 124.46,379.92 9.24,379.9 26.34,338.38 		"/>
		<polygon class="st0" points="436.13,296.36 419.7,296.36 384.71,380.12 487.54,380.12 491.27,380.05 473.84,341.73 494.73,296.88 
					"/>
		<path class="st0" d="M142.83,125.22c1.34,0.38,2.57-0.05,3.85-0.43c2.23-0.67,4.53-0.58,6.81-0.22c4.08,0.64,8.09,1.54,11.96,3
			c3.06,1.15,5.89,2.78,8.46,4.77c1.6,1.24,2.93,2.83,4.32,4.32c1.32,1.43,2.56,2.94,3.83,4.42c0.11,0.12,0.21,0.26,0.27,0.41
			c0.99,2.51,2.22,4.94,2.69,7.64c0.13,0.72,0.19,1.44,0.31,2.37c0.94-0.94,0.87-2.03,1.26-2.94c0.07-0.02,0.2-0.02,0.22-0.06
			c0.71-2.39,1.41-4.79,2.11-7.19c0.16-0.54,0.3-1.09,0.47-1.63c0.21-0.67,0.45-1.34,0.67-2.01c0.11-0.41,0.23-0.83,0.34-1.24
			c0.03-0.12,0.06-0.23,0.09-0.35c0.14-0.38,0.27-0.75,0.41-1.13c0.03-0.1,0.06-0.21,0.1-0.31c0.5-0.02,1-0.07,1.49-0.06
			c3.74,0.06,7.49,0.17,11.23,0.19c7.16,0.05,14.32,0.07,21.48,0.09c14.32,0.04,28.64,0.06,42.97,0.1c2,0.01,3.99,0.05,5.99,0.07
			c7.74,0.1,15.48,0.2,23.22,0.28c0.52,0.01,1.07-0.1,1.57-0.27c1.92-0.64,3.68-0.4,5.33,0.76c0.3,0.22,0.61,0.43,0.91,0.65
			c1.12,2.23,2.14,4.52,3.4,6.66c1.45,2.47,2.19,5.2,3.26,7.8c1.22,2.96,2.41,5.93,3.62,8.89c0.23,0.67,0.46,1.34,0.69,2.01
			c0.02,0.08,0.04,0.15,0.07,0.22c0.39,1.63,0.6,1.97,1.36,2.2c0.03-0.12,0.07-0.24,0.07-0.35c0.09-3.24,0.18-6.47,0.27-9.71
			c0.04-0.08,0.07-0.16,0.11-0.24c0,0-0.04,0.03-0.04,0.03c0.23-1.22,0.44-2.44,0.69-3.65c0.06-0.27,0.18-0.58,0.37-0.75
			c0.83-0.74,1.14-1.73,1.33-2.76c0.49-2.57,1.4-4.94,2.99-7.05c0.97-1.3,1.88-2.64,2.82-3.96c0.08-0.09,0.16-0.17,0.23-0.26
			c0,0-0.03,0.03-0.03,0.03c0.09-0.09,0.18-0.19,0.27-0.28l-0.03,0.03c1.48-1.27,2.97-2.53,4.45-3.8c0.4-0.32,0.81-0.64,1.21-0.97
			c0.23-0.05,0.49-0.05,0.69-0.16c5.11-3,10.65-4.55,16.53-4.94c4.72-0.32,9.36,0.1,13.89,1.51c0.63,0.19,1.27,0.35,1.88,0.58
			c1.21,0.45,2.31,1.07,3.3,1.94c2.72,2.38,5.39,4.81,7.54,7.74c0.39,0.53,0.71,1.12,1.06,1.68c0.7,4.01-0.57,7.55-2.71,10.85
			c0.4,0.75,0.96,1.4,0.91,2.28c-0.7,0.1-1.36,0.2-2.2,0.33c0.7,1,1.26,1.8,1.87,2.67c1.97-2.84,3.85-5.71,5.06-8.96
			c0.73-0.57,0.63-1.42,0.72-2.2c0.17-0.7,0.34-1.39,0.5-2.09c0.56-1.32,0.65-2.66,0.25-4.04c0.14-2.23-0.36-4.38-0.83-6.53
			c-0.18-0.85-0.42-1.68-0.66-2.64c0.5,0,0.91,0,1.32,0c7.79,0,15.58,0,23.36,0c13.95,0.01,27.9,0.04,41.85,0.04
			c9.91,0,19.82-0.05,29.73-0.08c2.5-0.01,4.99-0.04,7.49-0.08c0.45-0.01,0.85,0,0.81,0.62c0,0,0.03-0.01,0.03-0.01
			c-0.09,0.13-0.19,0.27-0.28,0.4c-0.43,0.82-0.86,1.64-1.3,2.47c-0.07,0.14-0.13,0.28-0.2,0.42c0,0,0.02-0.04,0.02-0.04
			c-0.84,2.02-1.68,4.03-2.51,6.05c-0.06,0.14-0.01,0.32-0.01,0.48l0.02-0.03c-0.09,0.18-0.18,0.35-0.27,0.53
			c0,0,0.02-0.03,0.02-0.03c-0.14,0.34-0.28,0.68-0.42,1.03c-0.96,3.01-1.88,6.03-2.89,9.03c-1.11,3.31-2.38,6.57-3.43,9.89
			c-2.53,7.93-4.18,16.09-6.01,24.19c-1.56,6.89-3.26,13.75-5.54,20.45c-0.67,1.96-1.32,3.92-1.99,5.88
			c-0.43,1.27-0.85,2.55-1.32,3.81c-0.45,1.21-0.96,2.39-1.47,3.58c-0.36,0.84-0.68,1.71-1.15,2.48c-0.51,0.83-1.32,1.51-1.05,2.65
			c0.02,0.1-0.08,0.23-0.14,0.34c-1.22,2.36-2.45,4.72-3.67,7.09c-0.06,0.13-0.13,0.25-0.19,0.38c0,0,0-0.04,0-0.04
			c-0.32,0.25-0.63,0.52-0.97,0.75c-0.71,0.5-1.38,1.12-2.17,1.42c-0.75,0.28-1.23,1.17-2.2,0.87c-0.11,0.63-0.19,1.16-0.29,1.69
			c-0.5,2.8-1.52,5.43-2.62,8.03l-0.1,0.07l0.01-0.04c-0.26,0.47-0.48,0.97-0.79,1.39c-3.2,4.37-6.72,8.47-10.36,12.47
			c-2.01,2.21-4.38,4.1-6.13,6.56c-0.12,0.17-0.3,0.28-0.46,0.42c-1.22,1.07-2.41,2.18-3.67,3.2c-1.47,1.2-3,2.32-4.51,3.47
			c-0.09,0.08-0.18,0.16-0.26,0.24l0.03-0.02c-0.4-0.04-0.72,0.05-0.78,0.52l0.03-0.02c-0.17,0.09-0.35,0.18-0.52,0.27l0.03-0.02
			c-0.09,0.09-0.18,0.18-0.28,0.27l0.02-0.02c-0.53-0.19-0.78,0.14-1.02,0.52l0.02-0.02c-0.45,0.19-0.92,0.34-1.34,0.58
			c-4.42,2.51-9.02,4.64-13.82,6.31c-6.99,2.42-14.14,3.78-21.57,3.35c-1.62-0.09-3.22-0.42-4.84-0.51
			c-2.41-0.13-4.83-0.16-7.24-0.18c-10.04-0.07-20.08-0.16-30.12-0.17c-12.92-0.01-25.83,0.05-38.75,0.08
			c-9.08,0.02-18.17,0.02-27.25,0.05c-5.87,0.02-11.75,0.08-17.62,0.11c-5,0.03-10,0.07-15,0.09c-7.67,0.02-15.33,0.05-23,0.04
			c-14.79-0.03-29.58-0.08-44.38-0.13c-1.87-0.01-3.75-0.05-5.62-0.07c-8.12-0.09-16.24-0.17-24.37-0.25
			c-0.37,0-0.75,0.01-1.12,0.06c-2.44,0.31-4.86,0.68-7.3,0.94c-7.57,0.82-15.12,0.79-22.67-0.25c-7.47-1.03-14.64-3.09-21.45-6.32
			c-1.99-0.94-3.92-2-5.88-3.01c-0.12-0.07-0.24-0.13-0.36-0.2c-1.24-0.83-2.48-1.65-3.71-2.5c-8.33-5.71-15.25-12.87-21.21-20.98
			c-6.94-9.44-12.35-19.73-17.01-30.44c-4.36-10.04-7.95-20.37-11.24-30.8c-0.14-0.44-0.37-0.85-0.56-1.28
			c-0.16-0.68-0.3-1.36-0.48-2.04c-0.66-2.53-1.33-5.06-2-7.59c-0.08-0.32-0.13-0.65-0.19-0.97c-0.17-0.9-0.25-1.82-0.52-2.68
			c-0.7-2.18-1.23-4.39-1.7-6.63c-0.85-4.02-1.86-8.01-2.9-11.99c-0.47-1.8-1.2-3.54-1.81-5.3c-0.39-1.13-0.84-2.25-1.13-3.42
			c-0.88-3.55-1.68-7.11-3.13-10.5c-0.46-1.08-0.65-2.27-0.97-3.41c-0.13-0.26-0.26-0.52-0.4-0.78l0.02,0.03
			c-0.09-0.34-0.18-0.69-0.27-1.03c0,0,0.03,0.02,0.03,0.02c0.13-0.18,0.23-0.47,0.39-0.51c0.44-0.1,0.91-0.11,1.36-0.11
			c5.5-0.06,10.99-0.11,16.49-0.18c6.29-0.08,12.57-0.17,18.86-0.25c6.54-0.08,13.07-0.17,19.61-0.2c7.33-0.03,14.66-0.05,21.99,0
			c6.29,0.04,12.57,0.16,18.86,0.29c3.41,0.07,6.82,0.22,10.23,0.34c0.26,2.35-0.22,4.64-0.62,6.93c-0.41,2.34-0.83,4.67-0.46,7.06
			c0.06,0.4-0.09,0.83-0.08,1.24c0.02,0.41,0.05,0.85,0.21,1.21c0.33,0.76,0.97,0.78,1.39,0.04c0.37-0.65,0.66-1.34,0.99-2.02
			c1.7-3.48,3.4-6.96,5.91-9.96c0.45-0.54,0.95-1.05,1.43-1.57c0,0,0.07-0.02,0.07-0.02c0.14-0.14,0.28-0.27,0.41-0.41
			c0,0,0.05-0.06,0.05-0.06c0.09-0.07,0.17-0.14,0.26-0.21c0,0,0.05-0.04,0.05-0.04c0.05-0.06,0.1-0.11,0.16-0.15
			c0.07-0.07,0.15-0.14,0.22-0.21c0,0-0.03,0.03-0.03,0.03c0.09-0.09,0.19-0.18,0.28-0.27c0,0-0.03,0.02-0.03,0.02
			c2.33-1.61,4.74-3.06,7.33-4.21c0.67,0.02,1.24-0.16,1.85-0.49c0.9-0.48,1.91-0.74,2.88-1.1
			C141.74,125.45,142.29,125.34,142.83,125.22z"/>
		<path class="st0" d="M303.23,381.52l53.25,34.45c0,0-65.04,74.77-106.69,74.77c-49.37,0-104.89-74.3-104.89-74.3l45.16-32.15
			c0,0,32.79,49.25,56.8,49.35C269.34,433.74,303.23,381.52,303.23,381.52z"/>
		<path class="st0" d="M159.11,338.83c-2.54,6.77,30.95,45.47,30.95,45.47l-45.16,32.15c0,0-42.55-62.91-54.53-85.17
			c-4.67-8.68-12.04-27.1-17.24-35.48c-9.23-14.86-32.38-41.77-39.55-57.73C23.41,215.44,9.61,141.8,9.61,141.8l2.13-9.69
			c0,0,19.52,74.95,31.47,97.64c8.48,16.1,33.87,43.87,49.23,53.63c11.61,7.38,39.55,12.4,53.21,14.05
			c54.67,6.61,166.74,9.2,220.23-3.87c8.74-2.13,25.67-9.22,32.93-14.54c16.09-11.79,46.32-39.34,56.14-56.7
			c11.6-20.5,28.01-89.96,28.01-89.96l5.65-5.38c0,0-13.77,77.85-22.12,102.77c-2.93,8.74-10.56,25.68-15.53,33.44
			c-6.4,9.99-23.17,27.16-29.36,37.28c-8.09,13.23-16.88,43.43-24.06,57.18c-8.25,15.81-41.06,58.33-41.06,58.33l-53.25-34.45
			c0,0,36.85-36.9,34.35-44.02C333.8,326.68,162.58,329.57,159.11,338.83z"/>
	</g>
	<g>
		<g>
			<path class="st1" d="M114.91,125.73c41.78-174.84,240.54-151.84,261.25,16.36c-12.6-38.34-64.16-20.12-63.92,15.98
				C267.46,47.01,224.07,34.8,181.02,145.14c-5.32-23.35-38.92-32-56.12-17.56C113.82,140.91,112.68,150.52,114.91,125.73z"/>
			<polygon class="st2" points="0.86,292.13 86.36,291.79 120.46,375.92 5.24,375.9 22.34,334.38 			"/>
			<polygon class="st2" points="432.13,292.36 415.7,292.36 380.71,376.12 483.54,376.12 487.27,376.05 469.84,337.73 
				490.73,292.88 			"/>
			<path class="st3" d="M138.83,121.22c1.34,0.38,2.57-0.05,3.85-0.43c2.23-0.67,4.53-0.58,6.81-0.22c4.08,0.64,8.09,1.54,11.96,3
				c3.06,1.15,5.89,2.78,8.46,4.77c1.6,1.24,2.93,2.83,4.32,4.32c1.32,1.43,2.56,2.94,3.83,4.42c0.11,0.12,0.21,0.26,0.27,0.41
				c0.99,2.51,2.22,4.94,2.69,7.64c0.13,0.72,0.19,1.44,0.31,2.37c0.94-0.94,0.87-2.03,1.26-2.94c0.07-0.02,0.2-0.02,0.22-0.06
				c0.71-2.39,1.41-4.79,2.11-7.19c0.16-0.54,0.3-1.09,0.47-1.63c0.21-0.67,0.45-1.34,0.67-2.01c0.11-0.41,0.23-0.83,0.34-1.24
				c0.03-0.12,0.06-0.23,0.09-0.35c0.14-0.38,0.27-0.75,0.41-1.13c0.03-0.1,0.06-0.21,0.1-0.31c0.5-0.02,1-0.07,1.49-0.06
				c3.74,0.06,7.49,0.17,11.23,0.19c7.16,0.05,14.32,0.07,21.48,0.09c14.32,0.04,28.64,0.06,42.97,0.1c2,0.01,3.99,0.05,5.99,0.07
				c7.74,0.1,15.48,0.2,23.22,0.28c0.52,0.01,1.07-0.1,1.57-0.27c1.92-0.64,3.68-0.4,5.33,0.76c0.3,0.22,0.61,0.43,0.91,0.65
				c1.12,2.23,2.14,4.52,3.4,6.66c1.45,2.47,2.19,5.2,3.26,7.8c1.22,2.96,2.41,5.93,3.62,8.89c0.23,0.67,0.46,1.34,0.69,2.01
				c0.02,0.08,0.04,0.15,0.07,0.22c0.39,1.63,0.6,1.97,1.36,2.2c0.03-0.12,0.07-0.24,0.07-0.35c0.09-3.24,0.18-6.47,0.27-9.71
				c0.04-0.08,0.07-0.16,0.11-0.24c0,0-0.04,0.03-0.04,0.03c0.23-1.22,0.44-2.44,0.69-3.65c0.06-0.27,0.18-0.58,0.37-0.75
				c0.83-0.74,1.14-1.73,1.33-2.76c0.49-2.57,1.4-4.94,2.99-7.05c0.97-1.3,1.88-2.64,2.82-3.96c0.08-0.09,0.16-0.17,0.23-0.26
				c0,0-0.03,0.03-0.03,0.03c0.09-0.09,0.18-0.19,0.27-0.28l-0.03,0.03c1.48-1.27,2.97-2.53,4.45-3.8c0.4-0.32,0.81-0.64,1.21-0.97
				c0.23-0.05,0.49-0.05,0.69-0.16c5.11-3,10.65-4.55,16.53-4.94c4.72-0.32,9.36,0.1,13.89,1.51c0.63,0.19,1.27,0.35,1.88,0.58
				c1.21,0.45,2.31,1.07,3.3,1.94c2.72,2.38,5.39,4.81,7.54,7.74c0.39,0.53,0.71,1.12,1.06,1.68c0.7,4.01-0.57,7.55-2.71,10.85
				c0.4,0.75,0.96,1.4,0.91,2.28c-0.7,0.1-1.36,0.2-2.2,0.33c0.7,1,1.26,1.8,1.87,2.67c1.97-2.84,3.85-5.71,5.06-8.96
				c0.73-0.57,0.63-1.42,0.72-2.2c0.17-0.7,0.34-1.39,0.5-2.09c0.56-1.32,0.65-2.66,0.25-4.04c0.14-2.23-0.36-4.38-0.83-6.53
				c-0.18-0.85-0.42-1.68-0.66-2.64c0.5,0,0.91,0,1.32,0c7.79,0,15.58,0,23.36,0c13.95,0.01,27.9,0.04,41.85,0.04
				c9.91,0,19.82-0.05,29.73-0.08c2.5-0.01,4.99-0.04,7.49-0.08c0.45-0.01,0.85,0,0.81,0.62c0,0,0.03-0.01,0.03-0.01
				c-0.09,0.13-0.19,0.27-0.28,0.4c-0.43,0.82-0.86,1.64-1.3,2.47c-0.07,0.14-0.13,0.28-0.2,0.42c0,0,0.02-0.04,0.02-0.04
				c-0.84,2.02-1.68,4.03-2.51,6.05c-0.06,0.14-0.01,0.32-0.01,0.48l0.02-0.03c-0.09,0.18-0.18,0.35-0.27,0.53
				c0,0,0.02-0.03,0.02-0.03c-0.14,0.34-0.28,0.68-0.42,1.03c-0.96,3.01-1.88,6.03-2.89,9.03c-1.11,3.31-2.38,6.57-3.43,9.89
				c-2.53,7.93-4.18,16.09-6.01,24.19c-1.56,6.89-3.26,13.75-5.54,20.45c-0.67,1.96-1.32,3.92-1.99,5.88
				c-0.43,1.27-0.85,2.55-1.32,3.81c-0.45,1.21-0.96,2.39-1.47,3.58c-0.36,0.84-0.68,1.71-1.15,2.48c-0.51,0.83-1.32,1.51-1.05,2.65
				c0.02,0.1-0.08,0.23-0.14,0.34c-1.22,2.36-2.45,4.72-3.67,7.09c-0.06,0.13-0.13,0.25-0.19,0.38c0,0,0-0.04,0-0.04
				c-0.32,0.25-0.63,0.52-0.97,0.75c-0.71,0.5-1.38,1.12-2.17,1.42c-0.75,0.28-1.23,1.17-2.2,0.87c-0.11,0.63-0.19,1.16-0.29,1.69
				c-0.5,2.8-1.52,5.43-2.62,8.03l-0.1,0.07l0.01-0.04c-0.26,0.47-0.48,0.97-0.79,1.39c-3.2,4.37-6.72,8.47-10.36,12.47
				c-2.01,2.21-4.38,4.1-6.13,6.56c-0.12,0.17-0.3,0.28-0.46,0.42c-1.22,1.07-2.41,2.18-3.67,3.2c-1.47,1.2-3,2.32-4.51,3.47
				c-0.09,0.08-0.18,0.16-0.26,0.24l0.03-0.02c-0.4-0.04-0.72,0.05-0.78,0.52l0.03-0.02c-0.17,0.09-0.35,0.18-0.52,0.27l0.03-0.02
				c-0.09,0.09-0.18,0.18-0.28,0.27l0.02-0.02c-0.53-0.19-0.78,0.14-1.02,0.52l0.02-0.02c-0.45,0.19-0.92,0.34-1.34,0.58
				c-4.42,2.51-9.02,4.64-13.82,6.31c-6.99,2.42-14.14,3.78-21.57,3.35c-1.62-0.09-3.22-0.42-4.84-0.51
				c-2.41-0.13-4.83-0.16-7.24-0.18c-10.04-0.07-20.08-0.16-30.12-0.17c-12.92-0.01-25.83,0.05-38.75,0.08
				c-9.08,0.02-18.17,0.02-27.25,0.05c-5.87,0.02-11.75,0.08-17.62,0.11c-5,0.03-10,0.07-15,0.09c-7.67,0.02-15.33,0.05-23,0.04
				c-14.79-0.03-29.58-0.08-44.38-0.13c-1.87-0.01-3.75-0.05-5.62-0.07c-8.12-0.09-16.24-0.17-24.37-0.25
				c-0.37,0-0.75,0.01-1.12,0.06c-2.44,0.31-4.86,0.68-7.3,0.94c-7.57,0.82-15.12,0.79-22.67-0.25c-7.47-1.03-14.64-3.09-21.45-6.32
				c-1.99-0.94-3.92-2-5.88-3.01c-0.12-0.07-0.24-0.13-0.36-0.2c-1.24-0.83-2.48-1.65-3.71-2.5c-8.33-5.71-15.25-12.87-21.21-20.98
				c-6.94-9.44-12.35-19.73-17.01-30.44c-4.36-10.04-7.95-20.37-11.24-30.8c-0.14-0.44-0.37-0.85-0.56-1.28
				c-0.16-0.68-0.3-1.36-0.48-2.04c-0.66-2.53-1.33-5.06-2-7.59c-0.08-0.32-0.13-0.65-0.19-0.97c-0.17-0.9-0.25-1.82-0.52-2.68
				c-0.7-2.18-1.23-4.39-1.7-6.63c-0.85-4.02-1.86-8.01-2.9-11.99c-0.47-1.8-1.2-3.54-1.81-5.3c-0.39-1.13-0.84-2.25-1.13-3.42
				c-0.88-3.55-1.68-7.11-3.13-10.5c-0.46-1.08-0.65-2.27-0.97-3.41c-0.13-0.26-0.26-0.52-0.4-0.78l0.02,0.03
				c-0.09-0.34-0.18-0.69-0.27-1.03c0,0,0.03,0.02,0.03,0.02c0.13-0.18,0.23-0.47,0.39-0.51c0.44-0.1,0.91-0.11,1.36-0.11
				c5.5-0.06,10.99-0.11,16.49-0.18c6.29-0.08,12.57-0.17,18.86-0.25c6.54-0.08,13.07-0.17,19.61-0.2c7.33-0.03,14.66-0.05,21.99,0
				c6.29,0.04,12.57,0.16,18.86,0.29c3.41,0.07,6.82,0.22,10.23,0.34c0.26,2.35-0.22,4.64-0.62,6.93c-0.41,2.34-0.83,4.67-0.46,7.06
				c0.06,0.4-0.09,0.83-0.08,1.24c0.02,0.41,0.05,0.85,0.21,1.21c0.33,0.76,0.97,0.78,1.39,0.04c0.37-0.65,0.66-1.34,0.99-2.02
				c1.7-3.48,3.4-6.96,5.91-9.96c0.45-0.54,0.95-1.05,1.43-1.57c0,0,0.07-0.02,0.07-0.02c0.14-0.14,0.28-0.27,0.41-0.41
				c0,0,0.05-0.06,0.05-0.06c0.09-0.07,0.17-0.14,0.26-0.21c0,0,0.05-0.04,0.05-0.04c0.05-0.06,0.1-0.11,0.16-0.15
				c0.07-0.07,0.15-0.14,0.22-0.21c0,0-0.03,0.03-0.03,0.03c0.09-0.09,0.19-0.18,0.28-0.27c0,0-0.03,0.02-0.03,0.02
				c2.33-1.61,4.74-3.06,7.33-4.21c0.67,0.02,1.24-0.16,1.85-0.49c0.9-0.48,1.91-0.74,2.88-1.1
				C137.74,121.45,138.29,121.34,138.83,121.22z"/>
			<path class="st2" d="M299.23,377.52l53.25,34.45c0,0-65.04,74.77-106.69,74.77c-49.37,0-104.89-74.3-104.89-74.3l45.16-32.15
				c0,0,32.79,49.25,56.8,49.35C265.34,429.74,299.23,377.52,299.23,377.52z"/>
			<path class="st1" d="M155.11,334.83c-2.54,6.77,30.95,45.47,30.95,45.47l-45.16,32.15c0,0-42.55-62.91-54.53-85.17
				c-4.67-8.68-12.04-27.1-17.24-35.48c-9.23-14.86-32.38-41.77-39.55-57.73C19.41,211.44,5.61,137.8,5.61,137.8l2.13-9.69
				c0,0,19.52,74.95,31.47,97.64c8.48,16.1,33.87,43.87,49.23,53.63c11.61,7.38,39.55,12.4,53.21,14.05
				c54.67,6.61,166.74,9.2,220.23-3.87c8.74-2.13,25.67-9.22,32.93-14.54c16.09-11.79,46.32-39.34,56.14-56.7
				c11.6-20.5,28.01-89.96,28.01-89.96l5.65-5.38c0,0-13.77,77.85-22.12,102.77c-2.93,8.74-10.56,25.68-15.53,33.44
				c-6.4,9.99-23.17,27.16-29.36,37.28c-8.09,13.23-16.88,43.43-24.06,57.18c-8.25,15.81-41.06,58.33-41.06,58.33l-53.25-34.45
				c0,0,36.85-36.9,34.35-44.02C329.8,322.68,158.58,325.57,155.11,334.83z"/>
		</g>
	</g>
</g>
</svg>
