<?xml version="1.0" encoding="utf-8"?>
<!-- Generator: Adobe Illustrator 26.2.1, SVG Export Plug-In . SVG Version: 6.00 Build 0)  -->
<svg version="1.1" id="Слой_1" xmlns="http://www.w3.org/2000/svg" xmlns:xlink="http://www.w3.org/1999/xlink" x="0px" y="0px"
	 viewBox="0 0 491.59 491.59" style="enable-background:new 0 0 491.59 491.59;" xml:space="preserve">
<style type="text/css">
	.st0{display:none;}
	.st1{display:inline;}
	.st2{fill:#006B93;}
	.st3{fill:#FFF3D9;}
	.st4{fill:#FACA21;}
	.st5{fill:#E22115;}
	.st6{clip-path:url(#SVGID_00000138539714630859126640000011448212828312005037_);}
</style>
<g class="st0">
	<g class="st1">
		<g>
			<path class="st2" d="M245.79,496.74c-53.77,0-110.52-75.11-112.9-78.31c-0.09-0.13-0.19-0.25-0.27-0.38
				c-0.11-0.16-9.96-14.73-21.39-32.13L5.23,385.9c-3.34,0-6.45-1.67-8.31-4.44c-1.86-2.77-2.21-6.29-0.94-9.37l15.35-37.27
				l-19.4-38.15c-1.57-3.09-1.43-6.78,0.38-9.75c1.81-2.96,5.02-4.77,8.5-4.79l50.76-0.2c-1.54-0.68-2.91-1.75-3.95-3.15l-1.71-2.29
				c-10.13-13.53-20.6-27.53-25.46-38.33C9.92,214.73-3.64,142.7-4.21,139.64c-0.25-1.32-0.23-2.67,0.06-3.99l1.53-6.97
				c-0.73-3.01-0.02-6.13,1.82-8.5c2.03-2.84,4.7-3.8,6.2-4.13c1.44-0.31,2.69-0.33,3.36-0.34l7.43-0.08
				c3.02-0.03,6.04-0.06,9.05-0.1c3.02-0.04,6.04-0.08,9.06-0.12c3.27-0.04,6.54-0.09,9.8-0.13l3.81-0.05
				c5.29-0.07,10.58-0.13,15.88-0.16c3.85-0.02,7.7-0.03,11.55-0.03c3.52,0,7.04,0.01,10.55,0.03c6.24,0.04,12.54,0.16,18.99,0.29
				c0.78,0.02,1.56,0.04,2.35,0.06c10.18-37.03,28.22-67.56,52.44-88.62c24.06-20.92,53.07-31.98,83.89-31.98
				c30.86,0,61.34,11.54,85.83,32.5c25.02,21.41,42.87,51.49,51.83,87.25l19.61,0l15.1,0.02c7.88,0.01,15.75,0.02,23.63,0.02l3.11,0
				c7.87,0,15.74-0.03,23.61-0.06l6.09-0.02c2.16-0.01,4.31-0.04,6.47-0.06l0.49-0.01c1.6-0.99,3.43-1.5,5.28-1.5
				c1.61,0,3.23,0.39,4.72,1.19c3.81,2.04,5.88,6.3,5.12,10.55c-0.57,3.21-13.99,78.88-22.48,104.21
				c-3.17,9.45-11.11,27.08-16.59,35.65c-3.27,5.1-8.46,11.29-14.02,17.86l49.46,0.44c3.4,0.03,6.55,1.79,8.37,4.66
				c1.81,2.88,2.04,6.48,0.61,9.56l-18.94,40.68l15.52,34.13c1.39,3.06,1.15,6.62-0.64,9.47c-1.8,2.85-4.9,4.6-8.27,4.67
				c0,0-3.86,0.07-3.92,0.07h-99.38c-11.26,15.74-23.16,31.17-23.77,31.96c-0.12,0.15-0.24,0.31-0.37,0.45
				c-0.68,0.78-16.96,19.43-38.7,38.36C290.96,483.34,265.55,496.74,245.79,496.74z M168.23,340.98
				c5.31,8.27,15.86,21.77,25.39,32.78c0.27,0.32,0.53,0.65,0.76,1c12.05,18.07,35.81,44.84,48.52,44.89
				c10.19,0,33.01-24.6,47.94-47.57c0.38-0.58,0.82-1.13,1.31-1.62c10.31-10.33,21.78-23.07,27.74-31.09
				c-10.26-1.44-30.43-2.81-62.2-2.81C218.07,336.56,183.44,338.65,168.23,340.98z M323.87,332.95
				C323.87,332.95,323.87,332.95,323.87,332.95z M198.78,306.91c8.66,0,15.78,0.51,22.41,1.62c0.46,0.08,0.93,0.12,1.37,0.12
				c0.85,0,2.92-0.15,3.75-1.59c1.79-3.09,5.09-4.97,8.64-4.97c0.13,0,0.26,0,0.4,0.01c4.66,0.18,9.32,0.4,13.98,0.61
				c11.49,0.53,23.37,1.08,34.76,1.1c0.81,0,1.44-0.14,1.87-0.43c1.64-1.08,3.56-1.65,5.5-1.65c0.39,0,0.79,0.02,1.19,0.07
				c6.66,0.79,12.68,1.61,18.42,2.5c1.46,0.23,2.85,0.77,4.08,1.6c0.16,0.11,0.66,0.45,1.91,0.45h6.34c1.24,0,2.49-0.77,3.11-1.92
				c1.45-2.67,4.04-4.54,7.03-5.08c8.36-1.5,15.72-4.13,21.89-7.81c1.31-0.78,2.79-1.26,4.31-1.38c14.82-1.21,25.01-4.6,33.04-10.99
				c0.2-0.16,0.27-0.26,0.33-0.54c0.82-4.4,4.47-7.72,8.92-8.12c3.05-0.28,6.09-0.57,9.14-0.88c1.1-0.11,4.67-0.72,4.67-3.69
				c0-1.5-1.79-3.63-2.61-3.69c-32.04,3.33-66.41,4.81-111.45,4.81c-14.22,0-28.05-0.14-39.72-0.28
				c-11.85-0.14-23.7-0.24-35.55-0.33c-12.41-0.1-25.24-0.21-37.88-0.36c-10.32-0.13-20.66-0.79-30.67-1.44
				c-9.34-0.6-18.99-1.23-28.38-1.38c-1.64-0.03-3.27-0.04-4.92-0.04c-24.79,0-43.43,3.58-58.66,11.28
				c-0.16,0.09-0.61,0.6-0.91,1.49c-0.9,2.67-2.86,4.79-5.35,5.92c0,0,9.12-0.04,9.13-0.04c0.98,0,1.96,0.15,2.9,0.43
				c5.29,1.61,11.21,2.63,18.08,3.14c2.39,0.18,4.63,1.2,6.32,2.89c0.71,0.7,1.66,1.32,2.76,1.77c0.19,0.07,0.32,0.12,0.46,0.18
				c1.62,0.65,3.03,1.71,4.12,3.07c0.75,0.95,1.97,1.54,3.26,1.59c4.64,0.16,9.45,0.3,14.71,0.43c0.23,0.01,0.47,0.02,0.7,0.04
				c4.42,0.42,9.15,0.62,14.44,0.62c1.8,0,3.71-0.02,5.68-0.07c0.08,0,0.16,0,0.25,0c4.9,0,9.09,3.55,9.87,8.41
				c0.41,2.55,2.41,3.19,4.01,3.27c2.53,0.13,5.2,0.2,8.15,0.2c5.46,0,11.17-0.23,16.68-0.45
				C187,307.15,192.91,306.91,198.78,306.91z M347.85,126.4c-1.5,0-3.03,0.07-4.53,0.21c-18.03,1.65-35.83,12.29-34.97,32.31
				c0.08,2,1.47,4.06,3.64,4.06c0.9,0,1.98-0.52,2.75-1.33c0.28-0.29,0.92-1.06,0.89-1.88c-0.03-0.71-0.04-1.42-0.05-2.13
				c0-0.33-0.01-0.66-0.01-0.99c-0.01-0.59,0.01-1.22,0.06-1.89c0.03-0.4,0.09-0.79,0.17-1.18c0.26-1.26,0.59-2.37,0.88-3.36
				c0.04-0.14,0.08-0.27,0.13-0.45c0.24-0.75,0.57-1.46,0.97-2.13c0.01-0.01,0.3-0.5,0.3-0.5c0.34-0.58,0.69-1.16,1.05-1.74
				c0.48-0.77,1.06-1.46,1.73-2.08c0.22-0.21,0.41-0.4,0.6-0.59c0.53-0.53,1.06-1.05,1.62-1.56c0.4-0.37,0.83-0.7,1.29-0.99
				c0.17-0.11,0.34-0.22,0.54-0.34l0.25-0.15c1.4-0.83,2.98-1.78,4.75-2.64c0.31-0.15,0.63-0.29,0.95-0.4
				c0.24-0.09,0.49-0.17,0.76-0.26l0.87-0.28c0.84-0.28,1.68-0.55,2.54-0.78c1.63-0.45,3.4-0.84,5.4-1.21
				c0.59-0.11,1.18-0.16,1.77-0.16c2.44,0,4.81,0.89,6.66,2.54c0.28,0.25,0.6,0.46,0.96,0.64c1.98,0.98,3.59,2.6,4.55,4.59
				c0.53,1.1,1.75,2.2,3.28,2.2h6.01c2.64,0,5.17,1.04,7.05,2.9c1.42,1.41,2.71,2.79,3.92,4.21c0.18,0.22,0.78,0.45,1.64,0.45
				c0.24,0,0.48-0.02,0.73-0.05c0.48-0.07,0.95-0.1,1.43-0.1c2.45,0,4.83,0.9,6.68,2.56c0.04,0.03,0.08,0.08,0.13,0.12
				c0.86,0.78,1.97,1.23,3.07,1.23c0.93,0,1.73-0.32,2.36-0.95c1.08-1.08,1.34-3.45,0.5-4.6c-1.89-2.59-2.43-5.94-1.43-8.99
				c0.48-1.48,0.27-3.32-0.49-4.37c-0.22-0.3-0.67-0.93-2.41-0.93h-8.6c-1.97,0-3.9-0.58-5.55-1.68l-0.55-0.37
				c-0.15-0.1-0.3-0.21-0.46-0.31c-0.58-0.37-1.12-0.78-1.6-1.25c-0.64-0.17-1.26-0.41-1.86-0.72
				C362.16,128.02,355.11,126.4,347.85,126.4z M144.62,122.57c-0.48,0-0.97,0.03-1.46,0.09c-0.75,0.09-4.52,0.67-4.79,3.24
				c-0.38,3.63-2.71,6.76-6.07,8.17c-3.58,1.51-7.1,3.15-10.07,4.56c-1.99,0.94-3.97,1.91-5.95,2.88c-1.44,0.7-2.87,1.41-4.31,2.1
				c-1.07,0.52-2.15,1.02-3.23,1.52l-1.37,0.64c-0.19,0.09-0.45,0.2-0.65,0.28l-0.25,0.1c-0.49,0.19-0.97,0.38-1.46,0.56
				c-0.43,0.16-4.18,1.63-3.33,4.73c0.35,1.29,2.24,2.82,3.47,2.82c0.11,0,0.17-0.02,0.21-0.03c5.18-1.9,10.22-4.37,15.56-6.98
				l1.31-0.64c3.02-1.47,6.24-3.04,9.57-4.54c0.53-0.24,2.21-0.98,2.21-0.98l0.17-0.08c0.28-0.12,0.56-0.23,0.84-0.33l1.08-0.42
				c1.32-0.51,2.69-1.04,4.15-1.54c2.25-0.78,4.58-1.46,7.12-2.09c0.8-0.2,1.61-0.3,2.41-0.3c2.94,0,5.79,1.3,7.71,3.63
				c0.68,0.82,1.36,1.65,2.06,2.46c2.28,2.67,7.05,7.15,13.34,7.15c1.35,0,2.74-0.21,4.13-0.62c1.48-0.44,1.94-1.09,2.18-1.6
				c0.56-1.2,0.42-3.05-0.35-4.81c-0.46-1.05-0.99-2.06-1.57-3.02c0,0-0.12-0.19-0.18-0.28c-3.72-5.95-9.54-9.49-17.31-10.52
				c-1.77-0.23-3.44-0.94-4.85-2.04C151.45,123.95,147.98,122.57,144.62,122.57z M202.59,120.81c6.1,0.04,12.2,0.05,18.3,0.07
				l43.29,0.1c1.42,0,2.84,0.02,4.26,0.05c0,0,12.59,0.16,15.77,0.2c-11.01-20.26-26.72-42.9-41.94-42.9
				C230.2,78.33,216.35,93.26,202.59,120.81z"/>
		</g>
		<g>
			<path class="st2" d="M7.36,137.36c-3.85,0-7.5-2.23-9.15-5.95l-0.02-0.03c-2.22-5.01,0.01-10.87,4.99-13.15
				c1.34-0.61,2.76-0.9,4.14-0.9c3.67,0,7.19,2.03,8.94,5.51c0.29,0.57,0.52,1.16,0.69,1.76c1.43,4.96-1.16,10.22-6.01,12.1
				C9.78,137.15,8.56,137.36,7.36,137.36z"/>
		</g>
	</g>
</g>
<circle class="st2" cx="-471.38" cy="245.79" r="245.79"/>
<g>
	<path class="st3" d="M-582.27,135.75C-546.36-14.54-375.5,5.23-357.7,149.82c-10.83-32.96-55.15-17.3-54.95,13.74
		c-38.49-95.47-75.79-105.97-112.8-11.12c-4.57-20.08-33.46-27.51-48.24-15.1C-583.21,148.8-584.19,157.06-582.27,135.75z"/>
	<polygon class="st4" points="-680.31,278.79 -606.81,278.5 -577.5,350.81 -676.55,350.8 -661.85,315.11 	"/>
	<polygon class="st4" points="-309.59,278.99 -323.71,278.99 -353.79,350.99 -265.4,350.99 -262.19,350.93 -277.17,317.99 
		-259.22,279.44 	"/>
	<path class="st5" d="M-561.71,131.88c1.15,0.32,2.21-0.04,3.31-0.37c1.92-0.57,3.89-0.5,5.85-0.19c3.5,0.55,6.96,1.32,10.28,2.58
		c2.63,0.99,5.06,2.39,7.27,4.1c1.37,1.07,2.52,2.43,3.71,3.72c1.14,1.23,2.2,2.53,3.29,3.8c0.09,0.11,0.18,0.23,0.23,0.36
		c0.85,2.16,1.91,4.25,2.31,6.57c0.11,0.61,0.16,1.24,0.27,2.04c0.8-0.81,0.75-1.75,1.08-2.52c0.06-0.02,0.18-0.02,0.19-0.05
		c0.61-2.06,1.21-4.12,1.81-6.18c0.13-0.47,0.26-0.94,0.41-1.4c0.18-0.58,0.38-1.15,0.58-1.73c0.1-0.36,0.2-0.71,0.29-1.07
		c0.02-0.1,0.05-0.2,0.07-0.3c0.12-0.32,0.23-0.65,0.35-0.97c0.03-0.09,0.06-0.18,0.08-0.27c0.43-0.02,0.86-0.06,1.28-0.05
		c3.22,0.05,6.44,0.14,9.65,0.17c6.16,0.04,12.31,0.06,18.47,0.08c12.31,0.03,24.62,0.05,36.93,0.08c1.72,0,3.43,0.04,5.15,0.06
		c6.65,0.08,13.31,0.17,19.96,0.24c0.45,0,0.92-0.08,1.35-0.23c1.65-0.55,3.17-0.35,4.58,0.66c0.26,0.19,0.52,0.37,0.78,0.56
		c0.97,1.91,1.84,3.88,2.93,5.73c1.25,2.12,1.88,4.47,2.8,6.71c1.04,2.54,2.07,5.1,3.11,7.65c0.2,0.57,0.4,1.15,0.6,1.72
		c0.02,0.07,0.04,0.13,0.06,0.19c0.34,1.4,0.52,1.69,1.17,1.89c0.02-0.1,0.06-0.2,0.06-0.3c0.08-2.78,0.15-5.57,0.23-8.35
		c0.03-0.07,0.06-0.14,0.09-0.21c0,0-0.03,0.03-0.03,0.03c0.2-1.05,0.38-2.1,0.6-3.14c0.05-0.23,0.15-0.5,0.32-0.64
		c0.72-0.64,0.98-1.48,1.15-2.37c0.42-2.21,1.21-4.25,2.57-6.06c0.84-1.11,1.62-2.27,2.43-3.41c0.07-0.07,0.13-0.15,0.2-0.22
		c0,0-0.02,0.02-0.02,0.02c0.08-0.08,0.16-0.16,0.23-0.24l-0.02,0.02c1.27-1.09,2.55-2.18,3.82-3.27c0.35-0.28,0.69-0.55,1.04-0.83
		c0.2-0.04,0.42-0.04,0.59-0.14c4.39-2.57,9.16-3.91,14.21-4.25c4.06-0.27,8.04,0.09,11.94,1.3c0.54,0.16,1.09,0.3,1.61,0.5
		c1.04,0.39,1.98,0.92,2.83,1.66c2.34,2.05,4.63,4.13,6.48,6.65c0.34,0.46,0.61,0.96,0.92,1.44c0.6,3.45-0.49,6.49-2.33,9.33
		c0.34,0.64,0.82,1.2,0.78,1.96c-0.6,0.09-1.17,0.17-1.89,0.28c0.6,0.86,1.08,1.55,1.61,2.3c1.7-2.44,3.31-4.91,4.35-7.7
		c0.63-0.49,0.54-1.22,0.62-1.89c0.14-0.6,0.29-1.2,0.43-1.79c0.48-1.13,0.56-2.29,0.22-3.47c0.12-1.92-0.31-3.77-0.71-5.62
		c-0.16-0.73-0.36-1.45-0.57-2.27c0.43,0,0.78,0,1.13,0c6.69,0,13.39,0,20.08,0c11.99,0.01,23.99,0.03,35.98,0.03
		c8.52,0,17.04-0.04,25.56-0.07c2.15-0.01,4.29-0.04,6.44-0.06c0.38,0,0.73,0,0.69,0.53c0,0,0.03-0.01,0.03-0.01
		c-0.08,0.11-0.16,0.23-0.24,0.34c-0.37,0.71-0.74,1.41-1.11,2.12c-0.06,0.12-0.11,0.24-0.17,0.36c0,0,0.02-0.03,0.02-0.03
		c-0.72,1.73-1.45,3.47-2.16,5.2c-0.05,0.12-0.01,0.28-0.01,0.42l0.02-0.03c-0.08,0.15-0.15,0.3-0.23,0.46c0,0,0.01-0.03,0.01-0.03
		c-0.12,0.29-0.24,0.59-0.36,0.88c-0.83,2.59-1.62,5.19-2.48,7.76c-0.96,2.85-2.04,5.65-2.95,8.51c-2.17,6.82-3.59,13.83-5.17,20.8
		c-1.34,5.92-2.8,11.82-4.76,17.58c-0.57,1.68-1.13,3.37-1.71,5.06c-0.37,1.09-0.73,2.19-1.13,3.27c-0.39,1.04-0.83,2.06-1.26,3.07
		c-0.31,0.72-0.59,1.47-0.99,2.14c-0.44,0.72-1.14,1.3-0.9,2.28c0.02,0.08-0.07,0.2-0.12,0.29c-1.05,2.03-2.1,4.06-3.16,6.09
		c-0.05,0.11-0.11,0.22-0.16,0.33c0,0,0-0.03,0-0.03c-0.28,0.22-0.54,0.45-0.83,0.65c-0.61,0.43-1.19,0.96-1.87,1.22
		c-0.65,0.24-1.06,1-1.89,0.75c-0.09,0.54-0.16,1-0.25,1.45c-0.43,2.4-1.31,4.66-2.25,6.9l-0.09,0.06l0.01-0.04
		c-0.22,0.4-0.41,0.83-0.68,1.2c-2.75,3.75-5.78,7.28-8.91,10.72c-1.73,1.9-3.76,3.52-5.27,5.64c-0.1,0.14-0.26,0.24-0.39,0.36
		c-1.05,0.92-2.07,1.87-3.15,2.75c-1.27,1.03-2.58,1.99-3.88,2.98c-0.08,0.07-0.15,0.14-0.23,0.21l0.02-0.02
		c-0.35-0.04-0.62,0.05-0.67,0.45l0.02-0.02c-0.15,0.08-0.3,0.16-0.45,0.23l0.02-0.02c-0.08,0.08-0.16,0.15-0.24,0.23l0.02-0.01
		c-0.45-0.16-0.67,0.12-0.88,0.45l0.02-0.01c-0.38,0.17-0.79,0.3-1.15,0.5c-3.8,2.16-7.75,3.99-11.88,5.42
		c-6.01,2.08-12.16,3.25-18.54,2.88c-1.39-0.08-2.77-0.36-4.16-0.44c-2.07-0.11-4.15-0.14-6.22-0.16
		c-8.63-0.06-17.26-0.14-25.89-0.15c-11.1-0.01-22.21,0.05-33.31,0.07c-7.81,0.02-15.62,0.01-23.43,0.04
		c-5.05,0.02-10.1,0.07-15.15,0.1c-4.3,0.03-8.59,0.06-12.89,0.08c-6.59,0.02-13.18,0.05-19.77,0.03
		c-12.71-0.02-25.43-0.07-38.14-0.11c-1.61-0.01-3.22-0.05-4.83-0.06c-6.98-0.07-13.96-0.15-20.94-0.21c-0.32,0-0.65,0.01-0.96,0.05
		c-2.09,0.27-4.18,0.58-6.28,0.81c-6.5,0.71-13,0.68-19.49-0.22c-6.42-0.89-12.58-2.65-18.44-5.44c-1.71-0.81-3.37-1.72-5.05-2.59
		c-0.1-0.06-0.21-0.11-0.31-0.17c-1.06-0.71-2.13-1.42-3.19-2.15c-7.16-4.91-13.11-11.06-18.23-18.03
		c-5.96-8.11-10.62-16.96-14.62-26.17c-3.75-8.63-6.83-17.51-9.66-26.48c-0.12-0.38-0.32-0.73-0.48-1.1
		c-0.14-0.58-0.26-1.17-0.41-1.75c-0.57-2.18-1.15-4.35-1.72-6.53c-0.07-0.27-0.11-0.56-0.17-0.84c-0.15-0.77-0.21-1.56-0.45-2.3
		c-0.6-1.87-1.05-3.77-1.46-5.7c-0.73-3.46-1.6-6.89-2.49-10.31c-0.41-1.55-1.03-3.04-1.55-4.56c-0.33-0.98-0.72-1.94-0.97-2.94
		c-0.75-3.05-1.45-6.12-2.69-9.03c-0.4-0.93-0.56-1.95-0.83-2.93c-0.11-0.22-0.23-0.45-0.34-0.67l0.01,0.03
		c-0.08-0.3-0.15-0.59-0.23-0.89c0,0,0.02,0.02,0.02,0.02c0.11-0.15,0.2-0.41,0.34-0.44c0.38-0.08,0.78-0.09,1.17-0.1
		c4.72-0.05,9.45-0.1,14.17-0.15c5.4-0.07,10.81-0.15,16.21-0.21c5.62-0.07,11.24-0.15,16.86-0.17c6.3-0.03,12.6-0.04,18.9,0
		c5.4,0.04,10.81,0.14,16.21,0.25c2.93,0.06,5.86,0.19,8.79,0.29c0.23,2.02-0.19,3.99-0.54,5.96c-0.36,2.01-0.71,4.01-0.4,6.07
		c0.05,0.34-0.08,0.71-0.06,1.07c0.01,0.35,0.04,0.73,0.18,1.04c0.29,0.65,0.84,0.67,1.19,0.04c0.32-0.56,0.57-1.15,0.85-1.73
		c1.46-2.99,2.92-5.98,5.08-8.56c0.39-0.47,0.82-0.9,1.23-1.35c0,0,0.06-0.02,0.06-0.02c0.12-0.12,0.24-0.23,0.36-0.35
		c0,0,0.04-0.05,0.04-0.05c0.07-0.06,0.15-0.12,0.22-0.18c0,0,0.04-0.03,0.04-0.03c0.04-0.05,0.09-0.09,0.14-0.13
		c0.06-0.06,0.13-0.12,0.19-0.18c0,0-0.02,0.02-0.02,0.02c0.08-0.08,0.16-0.15,0.24-0.23c0,0-0.02,0.02-0.02,0.02
		c2-1.38,4.08-2.63,6.3-3.62c0.57,0.02,1.07-0.14,1.59-0.42c0.77-0.41,1.64-0.64,2.47-0.94
		C-562.65,132.07-562.18,131.98-561.71,131.88z"/>
	<path class="st4" d="M-423.83,352.2l45.77,29.61c0,0-55.91,64.27-91.71,64.27c-42.44,0-90.17-63.86-90.17-63.86l38.82-27.63
		c0,0,28.19,42.34,48.83,42.42C-452.96,397.08-423.83,352.2-423.83,352.2z"/>
	<path class="st3" d="M-547.72,315.5c-2.18,5.82,26.6,39.08,26.6,39.08l-38.82,27.63c0,0-36.58-54.07-46.88-73.21
		c-4.02-7.46-10.35-23.3-14.82-30.5c-7.93-12.77-27.83-35.91-34-49.62c-8.74-19.45-20.6-82.75-20.6-82.75l1.83-8.33
		c0,0,16.78,64.43,27.05,83.93c7.29,13.84,29.11,37.71,42.32,46.1c9.98,6.34,34,10.66,45.74,12.08
		c46.99,5.68,143.33,7.9,189.31-3.32c7.52-1.84,22.07-7.93,28.31-12.5c13.83-10.13,39.82-33.81,48.26-48.74
		c9.97-17.62,24.07-77.33,24.07-77.33l4.85-4.63c0,0-11.83,66.92-19.01,88.34c-2.52,7.51-9.08,22.07-13.35,28.74
		c-5.5,8.59-19.92,23.35-25.24,32.05c-6.96,11.37-14.51,37.33-20.68,49.15c-7.09,13.59-35.3,50.14-35.3,50.14l-45.77-29.61
		c0,0,31.67-31.72,29.53-37.84C-397.56,305.05-544.74,307.54-547.72,315.5z"/>
</g>
<g>
	<defs>
		<rect id="SVGID_1_" width="491.59" height="491.59"/>
	</defs>
	<clipPath id="SVGID_00000150099941053678943440000007594722139040689598_">
		<use xlink:href="#SVGID_1_"  style="overflow:visible;"/>
	</clipPath>
	<g style="clip-path:url(#SVGID_00000150099941053678943440000007594722139040689598_);">
		<rect x="-91.51" y="-91.51" class="st2" width="674.61" height="674.61"/>
		<g>
			<path class="st3" d="M66.18,81.02c57.33-239.94,330.11-208.38,358.52,22.46c-17.29-52.62-88.05-27.61-87.72,21.93
				C275.53-27,215.99-43.76,156.9,107.67c-7.3-32.05-53.42-43.92-77.01-24.1C64.68,101.85,63.12,115.04,66.18,81.02z"/>
			<polygon class="st4" points="-90.34,309.38 27.01,308.92 73.79,424.37 -84.33,424.34 -60.86,367.36 			"/>
			<polygon class="st4" points="501.5,309.69 478.96,309.69 430.95,424.65 572.06,424.65 577.18,424.55 553.26,371.96 
				581.92,310.41 			"/>
			<path class="st5" d="M99.01,74.84c1.84,0.52,3.53-0.06,5.28-0.59c3.06-0.92,6.22-0.79,9.35-0.3c5.6,0.87,11.11,2.11,16.41,4.12
				c4.19,1.58,8.08,3.82,11.61,6.55c2.19,1.7,4.03,3.88,5.93,5.93c1.82,1.96,3.51,4.04,5.25,6.06c0.15,0.17,0.29,0.36,0.37,0.57
				c1.36,3.45,3.05,6.78,3.69,10.48c0.17,0.98,0.26,1.98,0.43,3.25c1.28-1.29,1.2-2.79,1.72-4.03c0.1-0.02,0.28-0.03,0.3-0.08
				c0.97-3.29,1.93-6.57,2.89-9.86c0.21-0.75,0.41-1.5,0.65-2.24c0.29-0.92,0.61-1.84,0.92-2.76c0.16-0.57,0.31-1.14,0.47-1.71
				c0.04-0.16,0.08-0.32,0.12-0.48c0.19-0.52,0.37-1.03,0.56-1.54c0.04-0.14,0.09-0.28,0.13-0.42c0.68-0.03,1.37-0.09,2.05-0.08
				c5.14,0.08,10.28,0.23,15.41,0.26c9.83,0.07,19.65,0.1,29.48,0.12c19.65,0.05,39.31,0.08,58.96,0.13
				c2.74,0.01,5.48,0.06,8.22,0.1c10.62,0.13,21.24,0.27,31.87,0.38c0.72,0.01,1.47-0.13,2.16-0.36c2.63-0.88,5.06-0.56,7.31,1.05
				c0.42,0.3,0.83,0.6,1.25,0.89c1.54,3.05,2.94,6.2,4.67,9.14c1.99,3.38,3.01,7.13,4.48,10.71c1.67,4.06,3.31,8.14,4.96,12.21
				c0.32,0.92,0.64,1.83,0.95,2.75c0.03,0.1,0.06,0.21,0.1,0.3c0.54,2.24,0.82,2.7,1.87,3.02c0.04-0.16,0.1-0.32,0.1-0.48
				c0.13-4.44,0.25-8.88,0.37-13.33c0.05-0.11,0.1-0.22,0.15-0.33c0,0-0.05,0.05-0.05,0.05c0.31-1.67,0.61-3.35,0.95-5.01
				c0.08-0.37,0.24-0.79,0.51-1.03c1.14-1.02,1.56-2.37,1.83-3.78c0.67-3.52,1.92-6.78,4.1-9.67c1.34-1.78,2.59-3.62,3.87-5.44
				c0.11-0.12,0.21-0.23,0.32-0.35c0,0-0.03,0.04-0.03,0.04c0.12-0.13,0.25-0.26,0.37-0.38l-0.03,0.04
				c2.04-1.74,4.07-3.48,6.11-5.22c0.55-0.44,1.11-0.88,1.66-1.33c0.32-0.07,0.68-0.07,0.94-0.23c7.01-4.11,14.62-6.24,22.69-6.78
				c6.47-0.44,12.84,0.14,19.06,2.07c0.86,0.26,1.74,0.48,2.58,0.79c1.66,0.62,3.16,1.47,4.53,2.66c3.74,3.27,7.4,6.6,10.35,10.62
				c0.54,0.73,0.98,1.53,1.46,2.3c0.96,5.51-0.78,10.35-3.72,14.89c0.55,1.03,1.32,1.92,1.25,3.13c-0.97,0.14-1.87,0.28-3.02,0.45
				c0.96,1.37,1.73,2.47,2.56,3.66c2.71-3.9,5.28-7.84,6.95-12.3c1-0.79,0.87-1.94,0.99-3.02c0.23-0.95,0.46-1.91,0.69-2.86
				c0.76-1.81,0.89-3.65,0.34-5.54c0.19-3.06-0.49-6.01-1.14-8.97c-0.25-1.16-0.58-2.31-0.91-3.62c0.69,0,1.25,0,1.81,0
				c10.69,0,21.38-0.01,32.06,0c19.15,0.01,38.29,0.05,57.44,0.05c13.6,0,27.2-0.06,40.8-0.11c3.43-0.01,6.85-0.06,10.28-0.1
				c0.61-0.01,1.17,0,1.11,0.84c0,0,0.04-0.01,0.04-0.01c-0.13,0.18-0.26,0.37-0.38,0.55c-0.59,1.13-1.19,2.26-1.78,3.38
				c-0.09,0.19-0.18,0.38-0.27,0.57c0,0,0.03-0.05,0.03-0.05c-1.15,2.77-2.31,5.53-3.44,8.31c-0.08,0.19-0.01,0.44-0.02,0.66
				l0.03-0.04c-0.12,0.24-0.24,0.49-0.37,0.73c0,0,0.02-0.04,0.02-0.04c-0.19,0.47-0.38,0.94-0.58,1.41
				c-1.32,4.13-2.59,8.28-3.97,12.39c-1.53,4.54-3.26,9.02-4.71,13.58c-3.47,10.88-5.73,22.08-8.25,33.2
				c-2.15,9.46-4.48,18.87-7.6,28.06c-0.91,2.69-1.81,5.38-2.72,8.07c-0.59,1.75-1.16,3.5-1.81,5.23c-0.62,1.65-1.32,3.28-2.02,4.91
				c-0.49,1.15-0.94,2.35-1.58,3.41c-0.7,1.15-1.82,2.07-1.44,3.64c0.03,0.13-0.11,0.32-0.19,0.47c-1.68,3.24-3.36,6.48-5.04,9.73
				c-0.09,0.17-0.18,0.35-0.26,0.52c0,0,0-0.05,0-0.05c-0.44,0.35-0.87,0.71-1.33,1.04c-0.98,0.68-1.9,1.54-2.98,1.95
				c-1.03,0.39-1.69,1.6-3.02,1.2c-0.15,0.87-0.26,1.59-0.39,2.32c-0.69,3.84-2.09,7.45-3.6,11.02l-0.14,0.09l0.01-0.06
				c-0.36,0.64-0.65,1.33-1.09,1.91c-4.4,5.99-9.22,11.63-14.22,17.12c-2.76,3.04-6.01,5.62-8.41,9c-0.16,0.23-0.41,0.39-0.63,0.58
				c-1.67,1.47-3.3,2.99-5.03,4.39c-2.02,1.64-4.12,3.18-6.19,4.77c-0.12,0.11-0.24,0.22-0.36,0.33l0.04-0.03
				c-0.55-0.06-0.98,0.07-1.07,0.72l0.04-0.03c-0.24,0.12-0.48,0.25-0.72,0.37l0.03-0.03c-0.13,0.12-0.25,0.24-0.38,0.37l0.03-0.02
				c-0.72-0.26-1.07,0.2-1.4,0.72l0.03-0.02c-0.61,0.26-1.26,0.47-1.83,0.8c-6.07,3.45-12.37,6.37-18.97,8.66
				c-9.59,3.32-19.41,5.19-29.6,4.59c-2.22-0.13-4.42-0.58-6.64-0.7c-3.31-0.17-6.62-0.23-9.94-0.25
				c-13.78-0.1-27.56-0.22-41.34-0.23c-17.73-0.01-35.45,0.07-53.18,0.11c-12.47,0.03-24.93,0.02-37.4,0.06
				c-8.06,0.03-16.12,0.1-24.18,0.16c-6.86,0.04-13.72,0.1-20.58,0.12c-10.52,0.03-21.04,0.07-31.57,0.05
				c-20.3-0.04-40.6-0.11-60.9-0.18c-2.57-0.01-5.14-0.07-7.71-0.1c-11.15-0.12-22.29-0.23-33.44-0.34
				c-0.51-0.01-1.03,0.01-1.54,0.08c-3.34,0.43-6.68,0.93-10.02,1.29c-10.38,1.13-20.75,1.08-31.11-0.35
				c-10.25-1.41-20.09-4.24-29.44-8.68c-2.73-1.3-5.38-2.75-8.06-4.13c-0.16-0.09-0.33-0.18-0.49-0.27c-1.7-1.14-3.4-2.27-5.09-3.42
				c-11.44-7.84-20.92-17.66-29.11-28.79c-9.52-12.95-16.95-27.07-23.34-41.78c-5.98-13.78-10.91-27.95-15.42-42.27
				c-0.19-0.6-0.51-1.17-0.77-1.75c-0.22-0.93-0.41-1.87-0.65-2.8c-0.91-3.48-1.83-6.95-2.74-10.42c-0.11-0.44-0.18-0.89-0.26-1.34
				c-0.23-1.23-0.34-2.5-0.72-3.68c-0.96-2.99-1.68-6.02-2.33-9.09c-1.16-5.52-2.55-11-3.98-16.46c-0.65-2.47-1.65-4.85-2.48-7.28
				c-0.53-1.56-1.16-3.09-1.55-4.69c-1.2-4.87-2.31-9.76-4.29-14.41c-0.63-1.48-0.9-3.12-1.33-4.68c-0.18-0.36-0.36-0.71-0.54-1.07
				l0.02,0.05c-0.12-0.47-0.24-0.94-0.37-1.42c0,0,0.04,0.03,0.04,0.03c0.18-0.24,0.32-0.65,0.54-0.7c0.61-0.13,1.25-0.14,1.87-0.15
				c7.54-0.09,15.08-0.16,22.63-0.25c8.63-0.1,17.25-0.24,25.88-0.34c8.97-0.11,17.94-0.23,26.91-0.28
				c10.06-0.05,20.12-0.06,30.18,0c8.63,0.06,17.25,0.22,25.88,0.4c4.68,0.09,9.36,0.3,14.04,0.46c0.36,3.23-0.3,6.37-0.86,9.52
				c-0.57,3.21-1.13,6.41-0.63,9.69c0.08,0.55-0.13,1.14-0.1,1.7c0.02,0.56,0.07,1.16,0.29,1.66c0.46,1.04,1.33,1.07,1.9,0.06
				c0.51-0.89,0.91-1.84,1.36-2.77c2.33-4.78,4.67-9.55,8.12-13.66c0.62-0.74,1.3-1.44,1.96-2.15c0,0,0.1-0.03,0.1-0.03
				c0.19-0.19,0.38-0.37,0.57-0.56c0,0,0.07-0.08,0.07-0.08c0.12-0.1,0.24-0.19,0.35-0.29c0,0,0.07-0.05,0.07-0.05
				c0.06-0.08,0.14-0.14,0.22-0.2c0.1-0.1,0.2-0.19,0.3-0.29c0,0-0.04,0.04-0.04,0.04c0.13-0.12,0.26-0.25,0.38-0.37
				c0,0-0.03,0.03-0.03,0.03c3.19-2.2,6.51-4.2,10.06-5.78c0.91,0.03,1.7-0.22,2.54-0.67c1.23-0.66,2.62-1.02,3.95-1.5
				C97.51,75.15,98.26,75,99.01,74.84z"/>
			<path class="st4" d="M319.13,426.57l73.07,47.28c0,0-89.26,102.6-146.41,102.6c-67.76,0-143.95-101.96-143.95-101.96l61.97-44.11
				c0,0,45,67.59,77.95,67.72C272.62,498.22,319.13,426.57,319.13,426.57z"/>
			<path class="st3" d="M121.34,367.98c-3.48,9.3,42.47,62.4,42.47,62.4l-61.97,44.11c0,0-58.4-86.33-74.84-116.88
				c-6.41-11.92-16.52-37.2-23.66-48.69c-12.67-20.39-44.43-57.32-54.27-79.22C-64.88,198.65-83.81,97.59-83.81,97.59l2.92-13.3
				c0,0,26.79,102.85,43.19,134c11.64,22.1,46.48,60.2,67.56,73.59c15.94,10.12,54.28,17.01,73.02,19.28
				c75.02,9.07,228.82,12.62,302.23-5.3c12-2.93,35.23-12.66,45.19-19.95c22.09-16.17,63.56-53.98,77.05-77.81
				c15.92-28.13,38.43-123.46,38.43-123.46l7.75-7.39c0,0-18.89,106.84-30.35,141.04c-4.02,11.99-14.5,35.24-21.32,45.89
				c-8.78,13.71-31.8,37.27-40.3,51.16c-11.1,18.16-23.17,59.6-33.01,78.47c-11.32,21.7-56.35,80.04-56.35,80.04l-73.07-47.28
				c0,0,50.56-50.64,47.15-60.41C361.07,351.31,126.11,355.28,121.34,367.98z"/>
		</g>
	</g>
</g>
</svg>
